<svg xmlns="http://www.w3.org/2000/svg" width="980" height="612" viewBox="0 0 980 612">
<rect width="100%" height="100%" fill="#f8fafc"/>
<text x="40" y="46" font-family="Arial, sans-serif" font-size="26" font-weight="700" fill="#111827">GKE AI Inference Reliability Lab</text>
<text x="40" y="74" font-family="Arial, sans-serif" font-size="14" fill="#4b5563">Sample output: latency, errors, and cache behavior across replayed inference incidents.</text>
<text x="310" y="118" font-family="Arial, sans-serif" font-size="13" font-weight="700" fill="#374151">p95 latency</text>
<text x="650" y="118" font-family="Arial, sans-serif" font-size="13" font-weight="700" fill="#374151">errors</text>
<text x="775" y="118" font-family="Arial, sans-serif" font-size="13" font-weight="700" fill="#374151">telemetry loss</text>
<rect x="32" y="102" width="916" height="68" rx="8" fill="#ffffff" stroke="#e5e7eb"/>
<text x="54" y="128" font-family="Arial, sans-serif" font-size="15" font-weight="700" fill="#111827">baseline</text>
<text x="54" y="152" font-family="Arial, sans-serif" font-size="12" fill="#6b7280">Healthy control group; use as the comparison baseline.</text>
<rect x="310" y="115" width="10" height="18" rx="4" fill="#2f855a"/>
<text x="310" y="150" font-family="Arial, sans-serif" font-size="13" fill="#374151">48 ms</text>
<rect x="650" y="115" width="2" height="18" rx="4" fill="#dc2626"/>
<text x="650" y="150" font-family="Arial, sans-serif" font-size="13" fill="#374151">0 errors</text>
<rect x="775" y="115" width="2" height="18" rx="4" fill="#7c3aed"/>
<text x="775" y="150" font-family="Arial, sans-serif" font-size="13" fill="#374151">0.00</text>
<rect x="32" y="188" width="916" height="68" rx="8" fill="#ffffff" stroke="#e5e7eb"/>
<text x="54" y="214" font-family="Arial, sans-serif" font-size="15" font-weight="700" fill="#111827">cache_miss_storm</text>
<text x="54" y="238" font-family="Arial, sans-serif" font-size="12" fill="#6b7280">Look for cache.result=miss and longer vector-cache spans before tuning the model path.</text>
<rect x="310" y="201" width="53" height="18" rx="4" fill="#b7791f"/>
<text x="310" y="236" font-family="Arial, sans-serif" font-size="13" fill="#374151">251 ms</text>
<rect x="650" y="201" width="2" height="18" rx="4" fill="#dc2626"/>
<text x="650" y="236" font-family="Arial, sans-serif" font-size="13" fill="#374151">0 errors</text>
<rect x="775" y="201" width="2" height="18" rx="4" fill="#7c3aed"/>
<text x="775" y="236" font-family="Arial, sans-serif" font-size="13" fill="#374151">0.00</text>
<rect x="32" y="274" width="916" height="68" rx="8" fill="#ffffff" stroke="#e5e7eb"/>
<text x="54" y="300" font-family="Arial, sans-serif" font-size="15" font-weight="700" fill="#111827">dependency_timeout</text>
<text x="54" y="324" font-family="Arial, sans-serif" font-size="12" fill="#6b7280">Trace child spans isolate feature-store lookup as the dominant latency source.</text>
<rect x="310" y="287" width="280" height="18" rx="4" fill="#c53030"/>
<text x="310" y="322" font-family="Arial, sans-serif" font-size="13" fill="#374151">1320 ms</text>
<rect x="650" y="287" width="80" height="18" rx="4" fill="#dc2626"/>
<text x="650" y="322" font-family="Arial, sans-serif" font-size="13" fill="#374151">3 errors</text>
<rect x="775" y="287" width="2" height="18" rx="4" fill="#7c3aed"/>
<text x="775" y="322" font-family="Arial, sans-serif" font-size="13" fill="#374151">0.00</text>
<rect x="32" y="360" width="916" height="68" rx="8" fill="#ffffff" stroke="#e5e7eb"/>
<text x="54" y="386" font-family="Arial, sans-serif" font-size="15" font-weight="700" fill="#111827">rollout_regression</text>
<text x="54" y="410" font-family="Arial, sans-serif" font-size="12" fill="#6b7280">Compare service.version=v2 traces against baseline before rolling forward.</text>
<rect x="310" y="373" width="97" height="18" rx="4" fill="#2b6cb0"/>
<text x="310" y="408" font-family="Arial, sans-serif" font-size="13" fill="#374151">455 ms</text>
<rect x="650" y="373" width="53" height="18" rx="4" fill="#dc2626"/>
<text x="650" y="408" font-family="Arial, sans-serif" font-size="13" fill="#374151">2 errors</text>
<rect x="775" y="373" width="2" height="18" rx="4" fill="#7c3aed"/>
<text x="775" y="408" font-family="Arial, sans-serif" font-size="13" fill="#374151">0.00</text>
<rect x="32" y="446" width="916" height="68" rx="8" fill="#ffffff" stroke="#e5e7eb"/>
<text x="54" y="472" font-family="Arial, sans-serif" font-size="15" font-weight="700" fill="#111827">collector_queue_pressure</text>
<text x="54" y="496" font-family="Arial, sans-serif" font-size="12" fill="#6b7280">Separate app health from telemetry delivery; inspect collector queue, retry, and exporter backpressure.</text>
<rect x="310" y="459" width="27" height="18" rx="4" fill="#4b5563"/>
<text x="310" y="494" font-family="Arial, sans-serif" font-size="13" fill="#374151">126 ms</text>
<rect x="650" y="459" width="2" height="18" rx="4" fill="#dc2626"/>
<text x="650" y="494" font-family="Arial, sans-serif" font-size="13" fill="#374151">0 errors</text>
<rect x="775" y="459" width="50" height="18" rx="4" fill="#7c3aed"/>
<text x="775" y="494" font-family="Arial, sans-serif" font-size="13" fill="#374151">0.42</text>
<text x="40" y="576" font-family="Arial, sans-serif" font-size="13" fill="#4b5563">Generated from demo/incident_replay.py with no cloud account required.</text>
</svg>
